<svg width="14" height="18" viewBox="0 0 14 18" fill="none" xmlns="http://www.w3.org/2000/svg">
<path d="M8.66669 1.5V4.83333C8.66669 5.05435 8.75448 5.26631 8.91077 5.42259C9.06705 5.57887 9.27901 5.66667 9.50002 5.66667H12.8334M8.66669 1.5H2.83335C2.39133 1.5 1.9674 1.67559 1.65484 1.98816C1.34228 2.30072 1.16669 2.72464 1.16669 3.16667V14.8333C1.16669 15.2754 1.34228 15.6993 1.65484 16.0118C1.9674 16.3244 2.39133 16.5 2.83335 16.5H11.1667C11.6087 16.5 12.0326 16.3244 12.3452 16.0118C12.6578 15.6993 12.8334 15.2754 12.8334 14.8333V5.66667M8.66669 1.5L12.8334 5.66667M4.50002 6.5H5.33335M4.50002 9.83333H9.50002M4.50002 13.1667H9.50002" stroke="#C4C8D2" stroke-width="1.5" stroke-linecap="round" stroke-linejoin="round"/>
</svg>
