<svg width="18" height="18" viewBox="0 0 18 18" fill="none" xmlns="http://www.w3.org/2000/svg">
<path d="M4.13433 13.1742L14.0002 13.1667M9.00017 1.5C10.5985 1.5 11.9335 2.625 12.2585 4.12583C13.1119 3.89487 14.0222 4.0124 14.789 4.45257C15.5558 4.89273 16.1163 5.61947 16.3473 6.47292C16.5782 7.32636 16.4607 8.2366 16.0205 9.00339C15.5804 9.77018 14.8536 10.3307 14.0002 10.5617V16.5H4.00017V10.5617C3.56758 10.4564 3.16044 10.2656 2.80276 10.0005C2.44508 9.73539 2.1441 9.40135 1.91757 9.01807C1.69104 8.63479 1.54355 8.21004 1.48379 7.76885C1.42403 7.32766 1.45322 6.87898 1.56962 6.44925C1.68603 6.01952 1.8873 5.61745 2.16156 5.26674C2.43583 4.91604 2.77754 4.6238 3.16655 4.40725C3.55555 4.19071 3.98398 4.05425 4.42656 4.00592C4.86915 3.95758 5.31693 3.99836 5.7435 4.12583C5.90489 3.38207 6.316 2.71595 6.90848 2.23824C7.50095 1.76053 8.2391 1.50001 9.00017 1.5Z" stroke="#00B012" stroke-width="1.5" stroke-linecap="round" stroke-linejoin="round"/>
</svg>
