<svg width="19" height="14" viewBox="0 0 19 14" fill="none" xmlns="http://www.w3.org/2000/svg">
<path d="M7.50002 11.1667C7.50002 12.0871 6.75383 12.8333 5.83335 12.8333C4.91288 12.8333 4.16669 12.0871 4.16669 11.1667M7.50002 11.1667C7.50002 10.2462 6.75383 9.5 5.83335 9.5C4.91288 9.5 4.16669 10.2462 4.16669 11.1667M7.50002 11.1667H12.5M4.16669 11.1667H2.50002V7.83333M15.8334 11.1667C15.8334 12.0871 15.0872 12.8333 14.1667 12.8333C13.2462 12.8333 12.5 12.0871 12.5 11.1667M15.8334 11.1667C15.8334 10.2462 15.0872 9.5 14.1667 9.5C13.2462 9.5 12.5 10.2462 12.5 11.1667M15.8334 11.1667H17.5V6.16666M1.66669 1.16666H10.8334V11.1667M17.5 6.16666H10.8334M17.5 6.16666L15 2H10.8334M2.50002 4.5H5.83335" stroke="#C4C8D2" stroke-width="1.5" stroke-linecap="round" stroke-linejoin="round"/>
</svg>
