<svg width="178" height="24" viewBox="0 0 178 24" fill="none" xmlns="http://www.w3.org/2000/svg">
<path d="M0 18.5235V0.268458H7.05291C10.1341 0.268458 12.5029 0.99329 14.1593 2.44295C15.8334 3.87472 16.6705 6.19239 16.6705 9.39597C16.6705 12.6174 15.8245 14.9441 14.1325 16.3758C12.4584 17.8076 10.0183 18.5235 6.81247 18.5235H0ZM4.70194 14.2819H6.81247C8.64694 14.2819 9.9471 13.8971 10.7129 13.1275C11.4788 12.3579 11.8617 11.1141 11.8617 9.39597C11.8617 7.65996 11.4699 6.41611 10.6862 5.66443C9.92039 4.89486 8.62023 4.51007 6.78576 4.51007H4.70194V14.2819Z" fill="#2A2C31"/>
<path d="M19.3229 3.67785V0H23.8378V3.67785H19.3229ZM19.3229 18.5235V5.2349H23.8111V18.5235H19.3229Z" fill="#2A2C31"/>
<path d="M35.3341 5.2349H39.5551V17.906C39.5551 18.9799 39.3859 19.9016 39.0475 20.6711C38.7269 21.4586 38.2639 22.094 37.6583 22.5772C37.0706 23.0604 36.3582 23.4183 35.5211 23.651C34.684 23.8837 33.7668 24 32.7694 24C30.9705 24 29.519 23.6152 28.4147 22.8456C27.3283 22.0761 26.6693 20.9933 26.4378 19.5973L30.6321 19.0604C30.7212 19.5078 30.9527 19.8479 31.3267 20.0805C31.7186 20.3311 32.1994 20.4564 32.7694 20.4564C33.5352 20.4564 34.1497 20.2774 34.6127 19.9195C35.0758 19.5794 35.3074 18.9172 35.3074 17.9329V16.7248C34.969 17.1902 34.4792 17.557 33.838 17.8255C33.1968 18.0761 32.4577 18.2013 31.6206 18.2013C30.8548 18.2013 30.1334 18.0671 29.4566 17.7987C28.7798 17.5123 28.1921 17.1007 27.6934 16.5638C27.1947 16.0268 26.794 15.3557 26.4912 14.5503C26.2062 13.7271 26.0638 12.7875 26.0638 11.7315C26.0638 10.604 26.2151 9.61074 26.5179 8.75168C26.8207 7.89262 27.2303 7.18568 27.7468 6.63087C28.2633 6.07606 28.8778 5.66443 29.5902 5.39597C30.3026 5.10962 31.0685 4.96644 31.8878 4.96644C32.6714 4.96644 33.3571 5.10962 33.9449 5.39597C34.5326 5.68233 34.9957 6.04922 35.3341 6.49664V5.2349ZM35.2005 12.3758V10.6846C35.2005 10.0761 35.0046 9.57494 34.6127 9.18121C34.2209 8.78747 33.6688 8.5906 32.9564 8.5906C32.2262 8.5906 31.6384 8.85906 31.1932 9.39597C30.7657 9.93289 30.552 10.6846 30.552 11.651C30.552 12.6175 30.7746 13.3602 31.2199 13.8792C31.6651 14.3803 32.244 14.6309 32.9564 14.6309C33.5619 14.6309 34.0873 14.4519 34.5326 14.094C34.9779 13.7181 35.2005 13.1454 35.2005 12.3758Z" fill="#2A2C31"/>
<path d="M42.4381 3.67785V0H46.953V3.67785H42.4381ZM42.4381 18.5235V5.2349H46.9263V18.5235H42.4381Z" fill="#2A2C31"/>
<path d="M58.3692 18.5235H55.9915C54.1748 18.5235 52.8123 18.1387 51.904 17.3691C50.9957 16.5817 50.5415 15.1857 50.5415 13.1812V9.10067H48.6714V5.2349H50.5415V2.06711H55.0297V5.2349H58.3692V9.10067H55.0297V13.0738C55.0297 13.6823 55.1633 14.1029 55.4304 14.3356C55.6976 14.5503 56.0983 14.6577 56.6326 14.6577H58.3692V18.5235Z" fill="#2A2C31"/>
<path d="M68.209 18.5235V17.0738C67.7994 17.6823 67.2651 18.1208 66.6061 18.3893C65.9471 18.6577 65.2436 18.7919 64.4956 18.7919C63.89 18.7919 63.3201 18.7025 62.7858 18.5235C62.2515 18.3624 61.7795 18.1119 61.3699 17.7718C60.978 17.4318 60.6663 17.0201 60.4348 16.5369C60.2033 16.0358 60.0875 15.4631 60.0875 14.8188C60.0875 13.4228 60.5239 12.4116 61.3966 11.7852C62.2871 11.1588 63.4982 10.783 65.0299 10.6577C65.582 10.6219 66.1163 10.604 66.6328 10.604C67.1671 10.5861 67.6391 10.5861 68.0488 10.604V9.74497C68.0488 9.27964 67.8974 8.9396 67.5946 8.72483C67.3096 8.49217 66.8822 8.37584 66.3122 8.37584C65.8848 8.37584 65.5108 8.48322 65.1902 8.69799C64.8696 8.91275 64.6648 9.31544 64.5757 9.90604L60.5417 9.34228C60.702 8.10738 61.2808 7.06935 62.2782 6.22819C63.2756 5.38703 64.6559 4.96644 66.4191 4.96644C67.2562 4.96644 68.0398 5.04698 68.7701 5.20805C69.5003 5.35123 70.1326 5.61074 70.6669 5.98658C71.2012 6.34452 71.6197 6.84564 71.9225 7.48993C72.2253 8.13423 72.3767 8.9396 72.3767 9.90604V18.5235H68.209ZM68.0488 13.2886C67.7994 13.2707 67.4788 13.2707 67.087 13.2886C66.6952 13.2886 66.33 13.2975 65.9917 13.3154C65.5998 13.3333 65.2436 13.4318 64.923 13.6107C64.6202 13.7718 64.4689 14.0403 64.4689 14.4161C64.4689 14.8098 64.6113 15.1051 64.8963 15.302C65.1813 15.4989 65.5553 15.5973 66.0184 15.5973C66.6595 15.5973 67.1582 15.4541 67.5144 15.1678C67.8707 14.8635 68.0488 14.4698 68.0488 13.9866V13.2886Z" fill="#2A2C31"/>
<path d="M75.2325 18.5235V0.268458H79.7207V18.5235H75.2325Z" fill="#2A2C31"/>
<path d="M83.9632 18.5235V0.268458H88.6652V7.16779H90.375L95.3708 0.268458H100.847L94.222 9.10067L101.008 18.5235H95.3174L90.4017 11.5705H88.6652V18.5235H83.9632Z" fill="#00B012"/>
<path d="M102.53 3.67785V0H107.044V3.67785H102.53ZM102.53 18.5235V5.2349H107.018V18.5235H102.53Z" fill="#00B012"/>
<path d="M118.461 18.5235H116.083C114.266 18.5235 112.904 18.1387 111.995 17.3691C111.087 16.5817 110.633 15.1857 110.633 13.1812V9.10067H108.763V5.2349H110.633V2.06711H115.121V5.2349H118.461V9.10067H115.121V13.0738C115.121 13.6823 115.255 14.1029 115.522 14.3356C115.789 14.5503 116.19 14.6577 116.724 14.6577H118.461V18.5235Z" fill="#00B012"/>
<path d="M128.624 13.2617L132.658 13.745C132.373 15.3199 131.705 16.5548 130.655 17.4497C129.622 18.3445 128.232 18.7919 126.487 18.7919C124.439 18.7919 122.809 18.2013 121.598 17.0201C120.405 15.8389 119.808 14.1298 119.808 11.8926C119.808 10.8009 119.968 9.8255 120.289 8.96644C120.627 8.10738 121.081 7.38255 121.651 6.79195C122.239 6.20134 122.943 5.75392 123.762 5.44967C124.599 5.12752 125.507 4.96644 126.487 4.96644C127.449 4.96644 128.295 5.10067 129.025 5.36913C129.755 5.61969 130.361 5.96868 130.842 6.41611C131.34 6.84564 131.732 7.35571 132.017 7.94631C132.32 8.51902 132.525 9.12752 132.632 9.77181L128.651 10.5235C128.526 9.96868 128.304 9.5123 127.983 9.15436C127.68 8.77852 127.208 8.5906 126.567 8.5906C125.855 8.5906 125.285 8.86801 124.857 9.42282C124.43 9.95973 124.216 10.7651 124.216 11.8389C124.216 12.9664 124.421 13.8076 124.831 14.3624C125.24 14.8993 125.801 15.1678 126.514 15.1678C127.137 15.1678 127.618 14.9978 127.956 14.6577C128.295 14.2998 128.517 13.8345 128.624 13.2617Z" fill="#00B012"/>
<path d="M134.698 18.5235V0.268458H139.186V6.73826C139.596 6.23714 140.121 5.81656 140.762 5.47651C141.403 5.13647 142.232 4.96644 143.247 4.96644C144.547 4.96644 145.624 5.36018 146.479 6.14765C147.352 6.93512 147.788 8.08054 147.788 9.58389V18.5235H143.3V10.6577C143.3 9.94184 143.113 9.44967 142.739 9.18121C142.365 8.89486 141.866 8.75168 141.243 8.75168C140.744 8.75168 140.272 8.88591 139.827 9.15436C139.4 9.42282 139.186 9.83445 139.186 10.3893V18.5235H134.698Z" fill="#00B012"/>
<path d="M162.714 12.8859H154.085C154.174 13.7271 154.423 14.3535 154.833 14.7651C155.26 15.1767 155.83 15.3826 156.543 15.3826C157.255 15.3826 157.763 15.2215 158.065 14.8993C158.386 14.5772 158.6 14.2729 158.707 13.9866L162.607 14.7383C162.482 15.2036 162.278 15.6779 161.993 16.1611C161.708 16.6443 161.325 17.0828 160.844 17.4765C160.363 17.8523 159.766 18.1655 159.054 18.4161C158.341 18.6667 157.495 18.7919 156.516 18.7919C154.396 18.7919 152.749 18.1834 151.573 16.9664C150.416 15.7494 149.837 14.0492 149.837 11.8658C149.837 10.7204 150.006 9.71812 150.345 8.85906C150.701 7.9821 151.173 7.25727 151.76 6.68456C152.366 6.11186 153.07 5.68233 153.871 5.39597C154.673 5.10962 155.527 4.96644 156.436 4.96644C157.487 4.96644 158.404 5.13647 159.187 5.47651C159.989 5.81656 160.648 6.29978 161.164 6.92618C161.681 7.53468 162.064 8.27741 162.313 9.15436C162.58 10.0134 162.714 10.962 162.714 12V12.8859ZM156.436 8.37584C155.937 8.37584 155.483 8.51902 155.073 8.80537C154.664 9.07383 154.37 9.566 154.192 10.2819H158.52C158.448 9.63758 158.226 9.16331 157.852 8.85906C157.478 8.53691 157.006 8.37584 156.436 8.37584Z" fill="#00B012"/>
<path d="M164.909 18.5235V5.2349H169.291V6.87248C169.718 6.35347 170.261 5.90604 170.92 5.5302C171.579 5.15436 172.416 4.96644 173.432 4.96644C174.714 4.96644 175.792 5.36018 176.664 6.14765C177.555 6.93512 178 8.08054 178 9.58389V18.5235H173.512V10.6577C173.512 9.94184 173.316 9.44967 172.924 9.18121C172.532 8.89486 172.042 8.75168 171.455 8.75168C170.956 8.75168 170.484 8.88591 170.039 9.15436C169.611 9.42282 169.398 9.83445 169.398 10.3893V18.5235H164.909Z" fill="#00B012"/>
</svg>
