<svg width="18" height="16" viewBox="0 0 18 16" fill="none" xmlns="http://www.w3.org/2000/svg">
<path d="M14 4.66667C14.663 4.66667 15.2989 4.93006 15.7678 5.3989C16.2366 5.86774 16.5 6.50363 16.5 7.16667C16.5 7.82971 16.2366 8.46559 15.7678 8.93443C15.2989 9.40328 14.663 9.66667 14 9.66667M7.33333 4.66667V13.8333C7.33333 14.0543 7.24554 14.2663 7.08926 14.4226C6.93298 14.5789 6.72101 14.6667 6.5 14.6667H5.66667C5.44565 14.6667 5.23369 14.5789 5.07741 14.4226C4.92113 14.2663 4.83333 14.0543 4.83333 13.8333V9.66667M9 4.66662L12.77 1.52496C12.8795 1.43371 13.0128 1.37558 13.1542 1.35738C13.2956 1.33917 13.4393 1.36165 13.5684 1.42217C13.6975 1.48269 13.8066 1.57874 13.8831 1.69908C13.9595 1.81942 14.0001 1.95906 14 2.10162V12.2316C14.0001 12.3742 13.9595 12.5138 13.8831 12.6342C13.8066 12.7545 13.6975 12.8506 13.5684 12.9111C13.4393 12.9716 13.2956 12.9941 13.1542 12.9759C13.0128 12.9577 12.8795 12.8995 12.77 12.8083L9 9.66662H2.33333C2.11232 9.66662 1.90036 9.57883 1.74408 9.42255C1.5878 9.26626 1.5 9.0543 1.5 8.83329V5.49996C1.5 5.27894 1.5878 5.06698 1.74408 4.9107C1.90036 4.75442 2.11232 4.66662 2.33333 4.66662H9Z" stroke="#C4C8D2" stroke-width="1.5" stroke-linecap="round" stroke-linejoin="round"/>
</svg>
