<svg width="18" height="18" viewBox="0 0 18 18" fill="none" xmlns="http://www.w3.org/2000/svg">
<path d="M10.175 7.825L12.3333 5.66667M4.83333 9C4.83333 7.89493 5.27232 6.83512 6.05372 6.05372C6.83512 5.27232 7.89493 4.83333 9 4.83333M16.5 9C16.5 13.1421 13.1421 16.5 9 16.5C4.85786 16.5 1.5 13.1421 1.5 9C1.5 4.85786 4.85786 1.5 9 1.5C13.1421 1.5 16.5 4.85786 16.5 9ZM9.83333 9C9.83333 9.46024 9.46024 9.83333 9 9.83333C8.53976 9.83333 8.16667 9.46024 8.16667 9C8.16667 8.53976 8.53976 8.16667 9 8.16667C9.46024 8.16667 9.83333 8.53976 9.83333 9Z" stroke="#C4C8D2" stroke-width="1.5" stroke-linecap="round" stroke-linejoin="round"/>
</svg>
