<svg width="16" height="16" viewBox="0 0 16 16" fill="none" xmlns="http://www.w3.org/2000/svg">
<path d="M11.3333 3C11.3333 3.92048 10.5871 4.66667 9.66665 4.66667C8.74617 4.66667 7.99998 3.92048 7.99998 3M11.3333 3C11.3333 2.07953 10.5871 1.33334 9.66665 1.33334C8.74617 1.33334 7.99998 2.07953 7.99998 3M11.3333 3H14.6666M7.99998 3H1.33331M6.33331 8C6.33331 8.92048 5.58712 9.66667 4.66665 9.66667C3.74617 9.66667 2.99998 8.92048 2.99998 8M6.33331 8C6.33331 7.07953 5.58712 6.33334 4.66665 6.33334C3.74617 6.33334 2.99998 7.07953 2.99998 8M6.33331 8H14.6666M2.99998 8H1.33331M13.8333 13C13.8333 13.9205 13.0871 14.6667 12.1666 14.6667C11.2462 14.6667 10.5 13.9205 10.5 13M13.8333 13C13.8333 12.0795 13.0871 11.3333 12.1666 11.3333C11.2462 11.3333 10.5 12.0795 10.5 13M13.8333 13H14.6666M10.5 13H1.33331" stroke="#C4C8D2" stroke-width="1.5" stroke-linecap="round" stroke-linejoin="round"/>
</svg>
